<svg height="512pt" viewBox="-41 0 512 512.002" width="512pt" xmlns="http://www.w3.org/2000/svg"><path d="m262.644531 190.007812c0 41.425782-33.582031 75.011719-75.007812 75.011719s-75.007813-33.585937-75.007813-75.011719c0-41.425781 33.582032-75.007812 75.007813-75.007812s75.007812 33.582031 75.007812 75.007812zm0 0" fill="#fcdb67"/><path d="m187.636719 136.433594c9.449219 0 18.316406 2.453125 26.023437 6.742187v-23.53125c-8.105468-3-16.871094-4.644531-26.023437-4.644531-9.152344 0-17.914063 1.644531-26.023438 4.644531v23.535157c7.707031-4.292969 16.578125-6.746094 26.023438-6.746094zm0 0" fill="#f7931e"/><path d="m187.636719 243.585938c-9.445313 0-18.316407-2.453126-26.023438-6.746094v23.535156c8.109375 2.996094 16.871094 4.644531 26.023438 4.644531 9.152343 0 17.917969-1.648437 26.023437-4.644531v-23.535156c-7.707031 4.292968-16.574218 6.746094-26.023437 6.746094zm0 0" fill="#f7931e"/><path d="m241.214844 190.007812c0 29.589844-23.984375 53.578126-53.574219 53.578126s-53.578125-23.988282-53.578125-53.578126c0-29.589843 23.988281-53.574218 53.578125-53.574218s53.574219 23.984375 53.574219 53.574218zm0 0" fill="#ffc502"/><path d="m423.078125 276.007812c0 41.425782-33.582031 75.011719-75.011719 75.011719-41.425781 0-75.007812-33.585937-75.007812-75.011719 0-41.425781 33.582031-75.007812 75.007812-75.007812 41.429688 0 75.011719 33.582031 75.011719 75.007812zm0 0" fill="#fcdb67"/><path d="m348.066406 222.433594c9.449219 0 18.320313 2.453125 26.027344 6.746094v-23.535157c-8.109375-3-16.875-4.644531-26.027344-4.644531-9.148437 0-17.914062 1.644531-26.023437 4.644531v23.535157c7.707031-4.292969 16.578125-6.746094 26.023437-6.746094zm0 0" fill="#f7931e"/><path d="m348.066406 329.585938c-9.445312 0-18.316406-2.453126-26.023437-6.746094v23.535156c8.109375 2.996094 16.875 4.644531 26.023437 4.644531 9.152344 0 17.917969-1.648437 26.027344-4.644531v-23.535156c-7.707031 4.292968-16.578125 6.746094-26.027344 6.746094zm0 0" fill="#f7931e"/><path d="m401.644531 276.007812c0 29.589844-23.988281 53.578126-53.578125 53.578126s-53.574218-23.988282-53.574218-53.578126c0-29.589843 23.984374-53.574218 53.574218-53.574218s53.578125 23.984375 53.578125 53.574218zm0 0" fill="#ffc502"/><path d="m365.050781 124.902344c0 21.039062-17.058593 38.097656-38.097656 38.097656-21.042969 0-38.101563-17.058594-38.101563-38.097656 0-21.042969 17.058594-38.101563 38.101563-38.101563 21.039063 0 38.097656 17.058594 38.097656 38.101563zm0 0" fill="#ffc502"/><path d="m343.019531 124.902344c0 8.871094-7.195312 16.066406-16.066406 16.066406-8.875 0-16.066406-7.195312-16.066406-16.066406 0-8.875 7.191406-16.066406 16.066406-16.066406 8.871094 0 16.066406 7.191406 16.066406 16.066406zm0 0" fill="#fcdb67"/><path d="m273.257812 45.601562c0 21.042969-17.058593 38.097657-38.097656 38.097657-21.042968 0-38.101562-17.054688-38.101562-38.097657 0-21.042968 17.058594-38.101562 38.101562-38.101562 21.039063 0 38.097656 17.058594 38.097656 38.101562zm0 0" fill="#ffc502"/><path d="m251.226562 45.601562c0 8.871094-7.195312 16.066407-16.066406 16.066407-8.875 0-16.066406-7.195313-16.066406-16.066407 0-8.875 7.191406-16.066406 16.066406-16.066406 8.871094 0 16.066406 7.191406 16.066406 16.066406zm0 0" fill="#fcdb67"/><path d="m279.347656 417.4375c-2.789062 2.785156-6.511718 4.320312-10.480468 4.320312s-7.6875-1.535156-10.476563-4.320312l-7.058594-7.054688h-32.125c-7.695312 0-18.335937-3.984374-24.625-9.082031l27.738281 25.808594c6.320313 4.007813 15 6.898437 21.554688 6.898437h122.90625v-8.667968c0-8.246094-6.710938-14.957032-14.957031-14.957032h-65.421875zm0 0" fill="#f7c39f"/><path d="m222.320312 427.109375 21.144532 19.671875c6.054687 5.636719 17.710937 10.21875 25.980468 10.21875h122v-8.035156c0-8.246094-6.707031-14.957032-14.957031-14.957032h-132.613281c-6.554688 0-15.234375-2.890624-21.554688-6.898437zm0 0" fill="#ffd5b3"/><path d="m402.445312 457h-133c-8.269531 0-19.925781-4.582031-25.980468-10.21875l-58.832032-54.734375c-2.03125-1.894531-3.1875-4.546875-3.1875-7.324219v-2.472656c0-5.523438 4.476563-10.003906 10-10.003906h17.59375c2.648438 0 5.191407 1.054687 7.066407 2.929687l42.285156 42.261719c2.785156 2.785156 6.507813 4.320312 10.476563 4.320312s7.691406-1.535156 10.480468-4.320312l15.886719-15.882812c2.789063-2.785157 4.320313-6.503907 4.320313-10.46875 0-3.96875-1.535157-7.6875-4.320313-10.472657l-63.671875-63.640625c-5.777344-5.773437-17.125-10.472656-25.296875-10.472656h-53.835937v136.191406l54.144531 51.472656c5.992187 5.699219 17.601562 10.335938 25.871093 10.335938h170c8.273438 0 15-6.726562 15-15v-17.5c0-8.269531-6.726562-15-15-15zm0 0" fill="#ffb98a"/><path d="m82.285156 296.234375h-69.628906c-2.835938 0-5.15625 2.320313-5.15625 5.152344v149.546875c0 2.832031 2.320312 5.152344 5.15625 5.152344h69.628906zm0 0" fill="#046699"/><path d="m87.4375 285.722656c-2.835938 0-5.152344 2.320313-5.152344 5.152344v170.570312c0 2.832032 2.316406 5.152344 5.152344 5.152344h59.839844c2.832031 0 5.152344-2.320312 5.152344-5.152344v-170.570312c0-2.832031-2.320313-5.152344-5.152344-5.152344zm0 0" fill="#083e63"/><path d="m187.636719 272.519531c45.496093 0 82.507812-37.015625 82.507812-82.511719 0-45.492187-37.011719-82.507812-82.507812-82.507812-45.496094 0-82.507813 37.015625-82.507813 82.507812 0 45.496094 37.011719 82.511719 82.507813 82.511719zm18.523437-17.605469c-5.890625 1.683594-12.097656 2.605469-18.523437 2.605469-6.421875 0-12.632813-.921875-18.523438-2.605469v-6.707031c5.847657 1.863281 12.066407 2.878907 18.523438 2.878907s12.679687-1.015626 18.523437-2.878907zm15-123.464843c20.285156 11.660156 33.984375 33.53125 33.984375 58.558593 0 25.027344-13.699219 46.902344-33.984375 58.5625v-7.542968c16.582032-10.933594 27.554688-29.714844 27.554688-51.019532 0-21.304687-10.972656-40.085937-27.554688-51.015624zm-52.046875-6.34375c5.890625-1.683594 12.101563-2.605469 18.523438-2.605469 6.425781 0 12.632812.921875 18.523437 2.605469v6.707031c-5.847656-1.867188-12.066406-2.882812-18.523437-2.882812s-12.679688 1.015624-18.523438 2.882812zm18.523438 18.828125c25.410156 0 46.078125 20.667968 46.078125 46.074218s-20.667969 46.078126-46.078125 46.078126c-25.40625 0-46.074219-20.671876-46.074219-46.078126s20.667969-46.074218 46.074219-46.074218zm-33.523438-12.484375v7.542969c-16.582031 10.933593-27.550781 29.714843-27.550781 51.015624 0 21.304688 10.96875 40.085938 27.550781 51.019532v7.542968c-20.285156-11.660156-33.984375-33.535156-33.984375-58.5625 0-25.027343 13.699219-46.898437 33.984375-58.558593zm0 0"/><path d="m182.972656 197.507812h9.328125c1.550781 0 2.808594 1.261719 2.808594 2.808594 0 1.550782-1.257813 2.808594-2.808594 2.808594h-17.179687c-4.144532 0-7.5 3.359375-7.5 7.5 0 4.144531 3.355468 7.5 7.5 7.5h5.019531v2.808594c0 4.144531 3.355469 7.5 7.5 7.5 4.140625 0 7.5-3.355469 7.5-7.5v-3.054688c8.46875-1.367187 14.96875-8.710937 14.96875-17.5625 0-9.820312-7.988281-17.808594-17.808594-17.808594h-9.328125c-1.546875 0-2.804687-1.257812-2.804687-2.808593 0-1.546875 1.257812-2.804688 2.804687-2.804688h14.726563c4.144531 0 7.5-3.359375 7.5-7.5 0-4.144531-3.355469-7.5-7.5-7.5h-2.558594v-2.808593c0-4.144532-3.359375-7.5-7.5-7.5-4.144531 0-7.5 3.355468-7.5 7.5v3.054687c-8.472656 1.363281-14.972656 8.707031-14.972656 17.558594 0 9.820312 7.988281 17.808593 17.804687 17.808593zm0 0"/><path d="m265.558594 276.007812c0 45.496094 37.015625 82.511719 82.507812 82.511719 45.496094 0 82.511719-37.015625 82.511719-82.511719 0-45.492187-37.015625-82.507812-82.511719-82.507812s-82.507812 37.015625-82.507812 82.507812zm48.984375 58.558594c-20.28125-11.65625-33.984375-33.53125-33.984375-58.558594 0-25.027343 13.703125-46.898437 33.984375-58.558593v7.539062c-16.578125 10.933594-27.550781 29.714844-27.550781 51.019531 0 21.304688 10.972656 40.085938 27.550781 51.019532zm52.050781 6.347656c-5.894531 1.683594-12.101562 2.605469-18.527344 2.605469-6.421875 0-12.632812-.921875-18.519531-2.605469v-6.707031c5.84375 1.863281 12.066406 2.878907 18.519531 2.878907 6.402344 0 12.636719-1.007813 18.527344-2.890626zm38.148438-87.71875c-4.792969-11.890624-12.960938-21.625-23.148438-28.300781v-7.445312c20.285156 11.660156 33.984375 33.53125 33.984375 58.558593 0 25.027344-13.699219 46.902344-33.984375 58.5625v-7.539062c10.875-7.140625 19.460938-17.71875 24.019531-30.511719 1.390625-3.902343-.644531-8.191406-4.546875-9.582031-3.898437-1.390625-8.191406.644531-9.582031 4.546875-6.523437 18.304687-23.972656 30.605469-43.417969 30.605469-25.40625 0-46.074218-20.671875-46.074218-46.078125 0-25.410157 20.667968-46.078125 46.074218-46.078125 18.910156 0 35.695313 11.332031 42.761719 28.871094 1.546875 3.839843 5.917969 5.699218 9.757813 4.152343 3.84375-1.546875 5.703124-5.917969 4.15625-9.761719zm-38.148438-35.417968c-5.878906-1.855469-12.109375-2.847656-18.527344-2.847656-6.453125 0-12.675781 1.015624-18.519531 2.882812v-6.707031c5.890625-1.683594 12.097656-2.605469 18.519531-2.605469 6.425782 0 12.636719.921875 18.527344 2.605469zm0 0"/><path d="m352.734375 268.507812h-9.328125c-1.550781 0-2.808594-1.257812-2.808594-2.808593 0-1.546875 1.257813-2.804688 2.808594-2.804688h14.722656c4.144532 0 7.5-3.359375 7.5-7.5 0-4.144531-3.355468-7.5-7.5-7.5h-2.558594v-2.808593c0-4.144532-3.355468-7.5-7.5-7.5-4.144531 0-7.5 3.355468-7.5 7.5v3.054687c-8.472656 1.367187-14.972656 8.707031-14.972656 17.558594 0 9.820312 7.988282 17.808593 17.808594 17.808593h9.328125c1.546875 0 2.804687 1.261719 2.804687 2.808594 0 1.550782-1.257812 2.808594-2.804687 2.808594h-17.183594c-4.140625 0-7.5 3.359375-7.5 7.5 0 4.144531 3.359375 7.5 7.5 7.5h5.019531v2.808594c0 4.144531 3.355469 7.5 7.5 7.5 4.144532 0 7.5-3.355469 7.5-7.5v-3.054688c8.46875-1.367187 14.96875-8.710937 14.96875-17.5625 0-9.820312-7.988281-17.808594-17.804687-17.808594zm0 0"/><path d="m326.953125 170.5c25.144531 0 45.597656-20.453125 45.597656-45.597656 0-25.144532-20.453125-45.601563-45.597656-45.601563s-45.601563 20.457031-45.601563 45.601563c0 25.144531 20.457032 45.597656 45.601563 45.597656zm0-76.199219c16.871094 0 30.597656 13.726563 30.597656 30.601563 0 16.871094-13.726562 30.601562-30.597656 30.601562-16.875 0-30.601563-13.730468-30.601563-30.601562 0-16.875 13.726563-30.601563 30.601563-30.601563zm0 0"/><path d="m326.953125 148.46875c12.992187 0 23.566406-10.574219 23.566406-23.566406 0-12.996094-10.574219-23.566406-23.566406-23.566406-12.996094 0-23.566406 10.570312-23.566406 23.566406 0 12.992187 10.570312 23.566406 23.566406 23.566406zm0-32.132812c4.722656 0 8.566406 3.84375 8.566406 8.566406s-3.84375 8.5625-8.566406 8.5625c-4.726563 0-8.566406-3.84375-8.566406-8.5625 0-4.722656 3.84375-8.566406 8.566406-8.566406zm0 0"/><path d="m235.160156 91.199219c25.144532 0 45.597656-20.457031 45.597656-45.597657 0-25.144531-20.453124-45.601562-45.597656-45.601562-25.144531 0-45.601562 20.457031-45.601562 45.601562 0 25.140626 20.457031 45.597657 45.601562 45.597657zm0-76.199219c16.871094 0 30.597656 13.726562 30.597656 30.601562 0 16.871094-13.726562 30.597657-30.597656 30.597657-16.875 0-30.601562-13.726563-30.601562-30.597657 0-16.875 13.726562-30.601562 30.601562-30.601562zm0 0"/><path d="m235.160156 69.164062c12.992188 0 23.566406-10.570312 23.566406-23.5625 0-12.996093-10.574218-23.566406-23.566406-23.566406-12.996094 0-23.566406 10.570313-23.566406 23.566406 0 12.992188 10.570312 23.5625 23.566406 23.5625zm0-32.128906c4.722656 0 8.566406 3.84375 8.566406 8.566406 0 4.722657-3.84375 8.5625-8.566406 8.5625-4.726562 0-8.566406-3.84375-8.566406-8.5625 0-4.722656 3.84375-8.566406 8.566406-8.566406zm0 0"/><path d="m402.445312 449.5h-3.5v-.535156c0-12.382813-10.074218-22.457032-22.457031-22.457032h-2.308593c.058593-.378906.101562-.769531.101562-1.167968 0-12.382813-10.074219-22.457032-22.457031-22.457032h-48.148438c2.1875-3.5 3.378907-7.550781 3.378907-11.796874 0-5.972657-2.316407-11.574219-6.519532-15.777344l-63.671875-63.636719c-7.222656-7.226563-20.378906-12.671875-30.597656-12.671875h-46.335937v-8.125c0-6.976562-5.675782-12.652344-12.652344-12.652344h-59.839844c-6.246094 0-11.4375 4.554688-12.457031 10.511719h-62.324219c-6.980469 0-12.65625 5.675781-12.65625 12.652344v149.546875c0 6.976562 5.679688 12.652344 12.65625 12.652344h62.324219c1.019531 5.957031 6.210937 10.511718 12.457031 10.511718h59.839844c6.976562 0 12.652344-5.675781 12.652344-12.652344v-1.273437l41.476562 39.429687c7.433594 7.070313 20.777344 12.402344 31.039062 12.402344h170c12.40625 0 22.5-10.097656 22.5-22.5v-17.503906c0-12.40625-10.09375-22.5-22.5-22.5zm-327.660156-.914062h-59.785156v-144.851563h59.785156zm277.039063-30.703126c4.109375 0 7.457031 3.347657 7.457031 7.457032 0 .398437.039062.789062.097656 1.167968h-79.761718c1.824218-1 3.519531-2.257812 5.03125-3.765624l4.859374-4.859376zm58.121093 71.617188c0 4.136719-3.363281 7.5-7.5 7.5h-170c-6.394531 0-16.070312-3.863281-20.703124-8.269531l-51.8125-49.257813v-77.472656c0-4.140625-3.359376-7.5-7.5-7.5-4.144532 0-7.5 3.359375-7.5 7.5v97.097656h-55.144532v-165.875h55.144532v32.773438c0 4.144531 3.355468 7.5 7.5 7.5 4.140624 0 7.5-3.355469 7.5-7.5v-11.996094h46.335937c6.132813 0 15.660156 3.945312 19.996094 8.277344l63.671875 63.636718c1.367187 1.371094 2.121094 3.207032 2.121094 5.171876 0 1.992187-.730469 3.777343-2.121094 5.164062l-15.886719 15.882812c-1.371094 1.371094-3.210937 2.125-5.179687 2.125-1.996094 0-3.785157-.734374-5.175782-2.125l-42.285156-42.261718c-3.253906-3.257813-7.765625-5.125-12.367188-5.125h-17.59375c-9.648437 0-17.5 7.851562-17.5 17.503906v2.472656c0 4.84375 2.035157 9.515625 5.578126 12.8125l58.832031 54.738282c7.492187 6.972656 20.859375 12.226562 31.089843 12.226562h61.84375c4.144532 0 7.5-3.355469 7.5-7.5 0-4.140625-3.355468-7.5-7.5-7.5h-61.84375c-6.308593 0-15.835937-3.710938-20.625-7.992188h127.667969c4.113281 0 7.457031 3.347657 7.457031 7.457032v.535156h-16.65625c-4.144531 0-7.5 3.359375-7.5 7.5 0 4.144531 3.355469 7.5 7.5 7.5h35.15625c4.136719 0 7.5 3.363281 7.5 7.5zm-161.71875-71.617188 4.863282 4.859376c1.507812 1.507812 3.207031 2.765624 5.027344 3.765624h-14.242188c-4.757812 0-11.800781-2.253906-17-5.402343l-3.460938-3.222657zm-29.019531-15c-5.878906 0-14.699219-3.265624-19.761719-7.300781l-9.703124-9.027343c-.503907-.46875-.796876-1.140626-.796876-1.832032v-2.472656c0-1.378906 1.121094-2.503906 2.5-2.503906h17.59375c.65625 0 1.300782.269531 1.765626.734375l22.414062 22.402343zm0 0"/><path d="m116.207031 414.867188s0 0-.003906 0c-4.140625 0-7.496094 3.359374-7.496094 7.5v12.847656c0 1.988281.789063 3.894531 2.195313 5.300781 1.40625 1.410156 3.316406 2.199219 5.304687 2.199219h.011719c1.988281 0 3.898438-.792969 5.304688-2.199219s2.195312-3.316406 2.195312-5.308594l-.011719-12.847656c-.003906-4.136719-3.359375-7.492187-7.5-7.492187zm0 0"/></svg>