<svg enable-background="new 0 0 100 100" height="512" viewBox="0 0 100 100" width="512" xmlns="http://www.w3.org/2000/svg"><path d="m83.0099258 5h-66.0198478c-4.5461092 0-8.2314482 3.6852512-8.2314482 8.2314472v73.5372849c0 4.5460186 3.685339 8.2312679 8.2314482 8.2312679h66.0198517c4.5461044 0 8.2314453-3.6852493 8.2314453-8.2312698v-73.537283c-.0000038-4.546196-3.6853447-8.2314472-8.2314492-8.2314472z" fill="#2f4859"/><path d="m18.661053 16.983313h49.908581v49.908581h-49.908581z" fill="#2d93ba"/><g fill="#64798a"><path d="m84.7238312 19.8253117h-11.1022415v.9469051h11.1022415v5.7324505h1.0658188v-5.7324505-.9469051z"/><path d="m84.7238312 32.3445778h-11.1022415v.946907h11.1022415v5.7324486h1.0658188v-5.7324486-.946907z"/><path d="m84.7238312 44.863842h-11.1022415v.9469071h11.1022415v5.7324485h1.0658188v-5.7324485-.9469071z"/><path d="m84.7238312 57.38311h-11.1022415v.9469033h11.1022415v5.7324486h1.0658188v-5.7324486-.9469033z"/><path d="m19.557119 76.369339h50.105808v4.639427h-50.105808z"/></g><path d="m50.9907875 47.9913597c-9.1375809 11.1414528-21.572094 17.166851-32.3297348 16.783123v-47.7911701h43.0873756c.8952942 9.7486382-2.7569122 21.2311344-10.7576408 31.0080471z" fill="#27a2db"/><path d="m51.2189064 43.1078148c-.649765-.8542786-1.57901-1.4585571-2.787735-1.8130035.9360657-.4635277 1.6358643-1.0724411 2.099308-1.8267365.4635277-.7542953.6952477-1.5585403.6952477-2.4129028 0-.9178772-.2612839-1.7971725-.7837753-2.6378059-.5225754-.8406334-1.2451134-1.4631042-2.1675377-1.867588-.6987038-.3062668-1.5724411-.495533-2.6178398-.5698261v-2.4890461h-2.6237373v2.4522362h-1.3268204v-2.4522362h-2.6236534v2.4522362h-1.1111832v-.0061493h-2.9341316v2.3516693h2.0658684v15.2808304h-2.0658684v2.3515816h2.0658684v.0067406h1.9794464v2.4564857h2.6236534v-2.4564857h1.3268204v2.4564857h2.6237373v-2.4785538c.8730621-.0422859 1.6371307-.1460609 2.2906837-.3119125.8769379-.2227097 1.6063004-.5521393 2.1879196-.9883766.5816231-.4362373 1.0700836-1.0565186 1.4654655-1.8607635.3953018-.804245.5929947-1.6744461.5929947-2.6105118 0-1.1632426-.3248825-2.1720888-.9747314-3.0263674zm-11.4713631-8.8063507h3.9941902c1.4358978 0 2.4492073.0931587 3.0400085.27948.5906334.1863213 1.045063.5316734 1.3631248 1.0360527.3181419.5043793.4771729 1.0882759.4771729 1.75177 0 .6997108-.1704025 1.2814178-.5112038 1.7448616s-.8474579.7952309-1.5200462.9951973c-.5089302.1544838-1.3494797.2317238-2.5219002.2317238h-4.3213463v-6.0390854zm9.3107338 13.5162582c-.2635612.486187-.5998154.8565521-1.0088463 1.1110191-.408947.2544632-.9178734.4362335-1.5267029.5452309-.3454323.0636787-.9452477.09552-1.7994423.09552h-1.6904488-1.3268204-1.9584732v-6.8706207h4.6212959c1.2723198 0 2.2469673.1113548 2.9241066.3339767.6770554.2226257 1.2063675.6089134 1.5881042 1.1586952.3816566.5498657.572525 1.1974373.572525 1.9426384.0000002.6361161-.1317365 1.1973534-.3952978 1.6835404z" fill="#ebf0f3"/></svg>