<svg viewBox="0 0 512 512" xmlns="http://www.w3.org/2000/svg"><path d="m489.308594 312.945312c-14.636719-17.976562-35.195313-30.460937-57.890625-35.160156l-70.136719-14.523437c-7.570312-1.566407-13.0625-8.316407-13.0625-16.046875v-28.476563c14.316406-14.769531 23.15625-34.878906 23.15625-57.023437v-110.25c0-28.378906-23.089844-51.464844-51.464844-51.464844h-102.535156c-5.523438 0-10 4.476562-10 10v151.714844c0 22.144531 8.839844 42.253906 23.15625 57.023437v28.488281c0 7.726563-5.492188 14.476563-13.054688 16.046876l-69.671874 14.472656c-8.414063 1.75-16.570313 4.554687-24.238282 8.34375-.15625.078125-.300781.171875-.453125.257812h-65.84375c-31.578125 0-57.269531 25.691406-57.269531 57.269532v158.382812c0 5.523438 4.476562 10 10 10h492c5.523438 0 10-4.476562 10-10v-125.238281c0-23.179688-8.058594-45.84375-22.691406-63.816407zm-261.933594-292.945312h92.535156c17.347656 0 31.464844 14.113281 31.464844 31.464844v36.242187c0 12.605469-10.257812 22.863281-22.867188 22.863281h-78.269531c-12.605469 0-22.863281-10.253906-22.863281-22.863281zm0 103.9375c6.621094 4.195312 14.460938 6.632812 22.863281 6.632812h78.269531c8.402344 0 16.242188-2.4375 22.867188-6.632812v37.777344c0 34.1875-27.8125 62-62 62s-62-27.8125-62-62zm-150.085938 368.0625h-57.289062v-148.382812c0-20.550782 16.71875-37.269532 37.269531-37.269532h214.507813c20.550781 0 37.269531 16.71875 37.269531 37.269532v148.382812zm414.710938 0h-34v-67c0-5.523438-4.476562-10-10-10s-10 4.476562-10 10v67h-108.953125v-148.382812c0-31.578126-25.691406-57.269532-57.269531-57.269532h-67.03125l16.796875-3.492187c16.796875-3.488281 28.988281-18.472657 28.988281-35.625v-13.320313c11.570312 6.25 24.796875 9.804688 38.84375 9.804688 14.042969 0 27.273438-3.554688 38.839844-9.804688v13.304688c0 17.167968 12.203125 32.152344 29.011718 35.632812l70.136719 14.519532c37.453125 7.753906 64.636719 41.144531 64.636719 79.394531zm0 0"/><path d="m164.523438 362.132812c-20.425782 0-37.042969 16.613282-37.042969 37.039063s16.617187 37.042969 37.042969 37.042969c20.425781 0 37.042968-16.617188 37.042968-37.042969s-16.617187-37.039063-37.042968-37.039063zm0 54.082032c-9.394532 0-17.042969-7.644532-17.042969-17.042969 0-9.394531 7.648437-17.039063 17.042969-17.039063 9.398437 0 17.042968 7.644532 17.042968 17.039063 0 9.398437-7.644531 17.042969-17.042968 17.042969zm0 0"/><path d="m36.832031 232.253906h45.277344l30.820313 30.816406c1.914062 1.914063 4.46875 2.929688 7.074218 2.929688 1.285156 0 2.585938-.25 3.820313-.761719 3.738281-1.546875 6.175781-5.195312 6.175781-9.238281v-23.75h17.164062c20.3125 0 36.835938-16.523438 36.835938-36.832031v-118.585938c0-20.308593-16.523438-36.832031-36.832031-36.832031h-110.335938c-20.308593 0-36.832031 16.523438-36.832031 36.832031v118.585938c0 20.3125 16.523438 36.835937 36.832031 36.835937zm-16.832031-155.421875c0-9.28125 7.550781-16.832031 16.832031-16.832031h110.332031c9.285157 0 16.835938 7.550781 16.835938 16.832031v118.585938c0 9.28125-7.550781 16.832031-16.832031 16.832031h-27.167969c-5.523438 0-10 4.476562-10 10v9.605469l-16.675781-16.675781c-1.875-1.875-4.417969-2.929688-7.070313-2.929688h-49.421875c-9.28125 0-16.832031-7.550781-16.832031-16.832031zm0 0"/><path d="m56.332031 106.125h71c5.523438 0 10-4.476562 10-10s-4.476562-10-10-10h-71c-5.523437 0-10 4.476562-10 10s4.480469 10 10 10zm0 0"/><path d="m56.332031 146.125h71c5.523438 0 10-4.476562 10-10s-4.476562-10-10-10h-71c-5.523437 0-10 4.476562-10 10s4.480469 10 10 10zm0 0"/><path d="m56.332031 186.125h71c5.523438 0 10-4.476562 10-10s-4.476562-10-10-10h-71c-5.523437 0-10 4.476562-10 10s4.480469 10 10 10zm0 0"/><path d="m261.050781 168.300781c2.628907 0 5.210938-1.070312 7.070313-2.929687 1.859375-1.871094 2.929687-4.441406 2.929687-7.070313 0-2.640625-1.070312-5.210937-2.929687-7.070312-1.859375-1.871094-4.441406-2.929688-7.070313-2.929688-2.628906 0-5.210937 1.058594-7.070312 2.929688-1.859375 1.847656-2.929688 4.429687-2.929688 7.070312 0 2.628907 1.070313 5.210938 2.929688 7.070313s4.441406 2.929687 7.070312 2.929687zm0 0"/><path d="m323 168.300781c2.628906 0 5.210938-1.070312 7.070312-2.929687 1.859376-1.871094 2.929688-4.441406 2.929688-7.070313 0-2.640625-1.070312-5.210937-2.929688-7.070312-1.859374-1.871094-4.441406-2.929688-7.070312-2.929688s-5.210938 1.058594-7.070312 2.929688c-1.859376 1.847656-2.929688 4.429687-2.929688 7.070312 0 2.628907 1.070312 5.210938 2.929688 7.070313 1.859374 1.859375 4.441406 2.929687 7.070312 2.929687zm0 0"/><path d="m448 376.210938c-2.628906 0-5.210938 1.070312-7.070312 2.929687-1.859376 1.871094-2.929688 4.4375-2.929688 7.078125 0 2.632812 1.070312 5.203125 2.929688 7.070312 1.859374 1.859376 4.441406 2.929688 7.070312 2.929688s5.210938-1.070312 7.070312-2.929688c1.859376-1.867187 2.929688-4.4375 2.929688-7.070312 0-2.640625-1.070312-5.207031-2.929688-7.078125-1.859374-1.859375-4.441406-2.929687-7.070312-2.929687zm0 0"/></svg>